<svg viewBox="0 0 640 400" data-background-color="#ca3433" preserveAspectRatio="xMidYMid meet" height="400" width="640" xmlns="http://www.w3.org/2000/svg" xmlns:xlink="http://www.w3.org/1999/xlink"><rect width="640" height="400" x="0" y="0" opacity="1" fill="#ca3433" data-fill-palette-color="background" id="background"></rect><g id="tight-bounds" transform="matrix(1,0,0,1,122.24000000000001,165.58126215323827)"><svg viewBox="0 0 395.52 68.83747569352347" height="68.83747569352347" width="395.52"><g><svg viewBox="0 0 397.4976 69.18166307199108" height="68.83747569352347" width="395.52"><g><rect width="397.4976" height="2.118942967219493" x="0" y="38.019200763045696" fill="#ffffff" opacity="1" stroke-width="0" stroke="transparent" fill-opacity="1" class="rect-o-0" data-fill-palette-color="secondary" rx="1%" id="o-0" data-palette-color="#ffffff"></rect></g><g transform="matrix(1,0,0,1,0.9887999999999693,45.68511484864083)"><svg viewBox="0 0 395.52000000000004 23.496548223350256" height="23.496548223350256" width="395.52000000000004"><g><svg viewBox="0 0 395.52000000000004 23.496548223350256" height="23.496548223350256" width="395.52000000000004"><g><svg viewBox="0 0 395.52000000000004 23.496548223350256" height="23.496548223350256" width="395.52000000000004"><g transform="matrix(1,0,0,1,0,0)"><svg width="395.52000000000004" viewBox="2.2899999618530273 -36.060001373291016 615.5800170898438 36.56999969482422" height="23.496548223350256" data-palette-color="#ffffff"><path d="M15.06 0L2.29 0 2.29-3.08 6.27-3.76 6.27-31.76 2.29-32.45 2.29-35.55 6.27-35.55 12.7-35.55 24.15-8.57 24.29-8.57 35.38-35.55 46.09-35.55 46.09-32.45 42.11-31.76 42.11-3.76 46.09-3.08 46.09 0 33.33 0 33.33-3.08 37.52-3.76 37.52-14.06 37.52-28.98 37.4-29 25.85-1.27 22.66-1.27 10.72-28.96 10.6-28.93 10.77-14.06 10.77-3.76 15.06-3.08 15.06 0ZM77.44 0L50.36 0 50.36-3.08 54.34-3.76 54.34-31.76 50.36-32.45 50.36-35.55 76.68-35.55 76.68-27 72.82-27 72.29-31.84 59.15-31.84 59.15-20.26 72.26-20.26 72.26-16.48 59.15-16.48 59.15-3.61 73.07-3.61 73.61-8.52 77.44-8.52 77.44 0ZM95.01 0L82.25 0 82.25-3.08 86.23-3.76 86.23-31.76 82.25-32.45 82.25-35.52 98.09-35.52Q101.97-35.52 104.65-34.36 107.32-33.2 108.71-31.01 110.1-28.81 110.1-25.63L110.1-25.63Q110.1-22.51 108.75-20.39 107.39-18.26 104.9-17.18 102.41-16.09 98.99-16.02L98.99-16.02 91.04-15.87 91.04-3.76 95.01-3.08 95.01 0ZM111.64 0L105.71 0 97.8-17.75 102.61-17.8 109.17-3.59 111.64-3.15 111.64 0ZM91.04-31.76L91.04-19.65 97.6-19.65Q101.63-19.65 103.46-21.19 105.29-22.73 105.29-25.68L105.29-25.68Q105.29-28.49 103.54-30.13 101.78-31.76 98.09-31.76L98.09-31.76 91.04-31.76ZM132.1 0.51L132.1 0.51Q127.17 0.51 123.55-1.77 119.94-4.05 117.99-8.11 116.03-12.16 116.03-17.48L116.03-17.48 116.03-18.07Q116.03-23.44 118-27.48 119.96-31.52 123.38-33.79 126.8-36.06 131.14-36.06L131.14-36.06Q135.3-36.06 138.19-35.11 141.08-34.16 143.13-32.54L143.13-32.54 143.13-25.37 139.18-25.37 138.66-30.52Q137.47-31.3 135.73-31.7 134-32.1 131.63-32.1L131.63-32.1Q128.58-32.1 126.14-30.35 123.7-28.59 122.28-25.45 120.87-22.31 120.87-18.12L120.87-18.12 120.87-17.48Q120.87-13.23 122.17-10.07 123.48-6.91 125.99-5.16 128.51-3.42 132.1-3.42L132.1-3.42Q134.54-3.42 136.22-3.85 137.91-4.27 139.2-4.96L139.2-4.96 139.2-13.31 132.39-13.55 132.39-17.09 144.01-17.09 144.01-3.32Q142.47-1.88 139.6-0.68 136.74 0.51 132.1 0.51ZM175.99 0L148.92 0 148.92-3.08 152.9-3.76 152.9-31.76 148.92-32.45 148.92-35.55 175.23-35.55 175.23-27 171.38-27 170.84-31.84 157.7-31.84 157.7-20.26 170.82-20.26 170.82-16.48 157.7-16.48 157.7-3.61 171.62-3.61 172.16-8.52 175.99-8.52 175.99 0ZM205.99 0L193.22 0 193.22-3.08 197.2-3.76 197.2-31.76 193.22-32.45 193.22-35.52 209.07-35.52Q212.95-35.52 215.62-34.36 218.3-33.2 219.69-31.01 221.08-28.81 221.08-25.63L221.08-25.63Q221.08-22.51 219.72-20.39 218.37-18.26 215.88-17.18 213.39-16.09 209.97-16.02L209.97-16.02 202.01-15.87 202.01-3.76 205.99-3.08 205.99 0ZM222.62 0L216.68 0 208.77-17.75 213.58-17.8 220.15-3.59 222.62-3.15 222.62 0ZM202.01-31.76L202.01-19.65 208.58-19.65Q212.61-19.65 214.44-21.19 216.27-22.73 216.27-25.68L216.27-25.68Q216.27-28.49 214.51-30.13 212.75-31.76 209.07-31.76L209.07-31.76 202.01-31.76ZM254.11 0L227.03 0 227.03-3.08 231.01-3.76 231.01-31.76 227.03-32.45 227.03-35.55 253.35-35.55 253.35-27 249.49-27 248.96-31.84 235.82-31.84 235.82-20.26 248.93-20.26 248.93-16.48 235.82-16.48 235.82-3.61 249.74-3.61 250.28-8.52 254.11-8.52 254.11 0ZM284.53 0L258.92 0 258.92-3.08 262.9-3.76 262.9-31.76 258.92-32.45 258.92-35.55 262.9-35.55 267.7-35.55 271.68-35.55 271.68-32.45 267.7-31.76 267.7-3.69 280.28-3.69 280.84-9.3 284.53-9.3 284.53 0ZM315.53 0L288.45 0 288.45-3.08 292.43-3.76 292.43-31.76 288.45-32.45 288.45-35.55 314.77-35.55 314.77-27 310.92-27 310.38-31.84 297.24-31.84 297.24-20.26 310.35-20.26 310.35-16.48 297.24-16.48 297.24-3.61 311.16-3.61 311.7-8.52 315.53-8.52 315.53 0ZM330.25 0L320.07 0 320.07-3.08 322.7-3.44 335.13-35.55 339.26-35.55 351.46-3.44 354.08-3.08 354.08 0 343.87 0 343.87-3.08 346.56-3.54 344.21-10.08 329.98-10.08 327.56-3.54 330.25-3.08 330.25 0ZM336.79-28.56L331.47-14.11 342.75-14.11 337.52-28.56 337.23-29.37 337.08-29.37 336.79-28.56ZM370.58 0.51L370.58 0.51Q367.33 0.51 364.33-0.44 361.33-1.39 358.59-3.37L358.59-3.37 358.59-10.96 362.33-10.96 363.13-5.37Q364.72-4.39 366.57-3.86 368.43-3.32 370.58-3.32L370.58-3.32Q373.02-3.32 374.72-4.06 376.41-4.81 377.32-6.13 378.22-7.45 378.22-9.2L378.22-9.2Q378.22-10.84 377.44-12.08 376.66-13.33 374.86-14.27 373.07-15.21 369.97-15.92L369.97-15.92Q366.31-16.77 363.78-18.2 361.25-19.63 359.95-21.67 358.64-23.71 358.64-26.34L358.64-26.34Q358.64-29.13 360.12-31.32 361.59-33.52 364.23-34.79 366.87-36.06 370.38-36.06L370.38-36.06Q374.12-36.06 376.99-34.92 379.86-33.79 381.71-32.18L381.71-32.18 381.71-25.07 377.98-25.07 377.17-30.15Q376.07-31.03 374.44-31.62 372.8-32.2 370.38-32.2L370.38-32.2Q368.33-32.2 366.77-31.48 365.21-30.76 364.33-29.47 363.45-28.17 363.45-26.42L363.45-26.42Q363.45-24.88 364.24-23.73 365.04-22.58 366.83-21.72 368.62-20.85 371.63-20.09L371.63-20.09Q377.24-18.7 380.14-15.98 383.03-13.26 383.03-9.25L383.03-9.25Q383.03-6.4 381.49-4.19 379.95-1.98 377.16-0.73 374.36 0.51 370.58 0.51ZM414.28 0L387.2 0 387.2-3.08 391.18-3.76 391.18-31.76 387.2-32.45 387.2-35.55 413.52-35.55 413.52-27 409.66-27 409.13-31.84 395.99-31.84 395.99-20.26 409.1-20.26 409.1-16.48 395.99-16.48 395.99-3.61 409.91-3.61 410.44-8.52 414.28-8.52 414.28 0ZM444.28 0L431.51 0 431.51-3.08 435.49-3.76 435.49-31.76 431.51-32.45 431.51-35.55 444.28-35.55 444.28-32.45 440.3-31.76 440.3-19.48 457.29-19.48 457.29-31.76 453.31-32.45 453.31-35.55 457.29-35.55 462.1-35.55 466.08-35.55 466.08-32.45 462.1-31.76 462.1-3.76 466.08-3.08 466.08 0 453.31 0 453.31-3.08 457.29-3.76 457.29-15.7 440.3-15.7 440.3-3.76 444.28-3.08 444.28 0ZM484.53 0.51L484.53 0.51Q481.09 0.51 478.36-0.81 475.62-2.12 473.71-4.53 471.79-6.93 470.78-10.23 469.76-13.53 469.76-17.5L469.76-17.5 469.76-18.02Q469.76-21.97 470.78-25.28 471.79-28.59 473.71-31.01 475.62-33.42 478.36-34.74 481.09-36.06 484.53-36.06L484.53-36.06Q488.17-36.06 490.93-34.74 493.69-33.42 495.56-31.01 497.42-28.59 498.38-25.28 499.33-21.97 499.33-18.02L499.33-18.02 499.33-17.5Q499.33-13.53 498.38-10.23 497.42-6.93 495.56-4.53 493.69-2.12 490.93-0.81 488.17 0.51 484.53 0.51ZM484.53-3.49L484.53-3.49Q488.07-3.49 490.26-5.25 492.44-7.01 493.47-10.17 494.49-13.33 494.49-17.5L494.49-17.5 494.49-18.07Q494.49-22.22 493.46-25.35 492.42-28.49 490.22-30.26 488.02-32.03 484.53-32.03L484.53-32.03Q481.33-32.03 479.11-30.25 476.89-28.47 475.74-25.33 474.6-22.19 474.6-18.07L474.6-18.07 474.6-17.5Q474.6-13.35 475.74-10.19 476.89-7.03 479.11-5.26 481.33-3.49 484.53-3.49ZM523.89 0L511.12 0 511.12-3.08 515.1-3.76 515.1-31.91 507.04-31.91 506.33-26.98 502.72-26.98 502.72-35.55 532.26-35.55 532.26-26.98 528.7-26.98 527.96-31.91 519.91-31.91 519.91-3.76 523.89-3.08 523.89 0ZM549.44 0L536.68 0 536.68-3.08 540.66-3.76 540.66-31.76 536.68-32.45 536.68-35.55 563.41-35.55 563.41-27 559.55-27 559.02-31.81 545.47-31.81 545.47-19.51 558.48-19.51 558.48-15.72 545.47-15.72 545.47-3.76 549.44-3.08 549.44 0ZM580.11 0L567.34 0 567.34-3.08 571.32-3.76 571.32-31.76 567.34-32.45 567.34-35.55 580.11-35.55 580.11-32.45 576.13-31.76 576.13-3.76 580.11-3.08 580.11 0ZM596.07 0L584.45 0 584.45-3.08 587.53-3.61 598.54-18.04 588.33-31.91 585.23-32.45 585.23-35.55 596.75-35.55 596.75-32.45 593.41-32.13 601.27-21.17 608.74-32.13 605.32-32.45 605.32-35.55 616.92-35.55 616.92-32.45 613.67-31.91 604.03-18.04 614.72-3.61 617.87-3.08 617.87 0 606.2 0 606.2-3.08 609.64-3.39 601.22-14.94 592.82-3.39 596.07-3.08 596.07 0Z" opacity="1" transform="matrix(1,0,0,1,0,0)" fill="#ffffff" class="undefined-text-0" data-fill-palette-color="primary" id="text-0"></path></svg></g></svg></g></svg></g></svg></g><g transform="matrix(1,0,0,1,176.22041002007373,0)"><svg viewBox="0 0 45.056779959852506 32.47222964467006" height="32.47222964467006" width="45.056779959852506"><g><svg xmlns="http://www.w3.org/2000/svg" xmlns:xlink="http://www.w3.org/1999/xlink" version="1.1" x="8" y="0" viewBox="10.401997566223145 5.74799919128418 79.1950912475586 88.50399780273438" enable-background="new 0 0 100 100" xml:space="preserve" height="32.47222964467006" width="29.056779959852506" class="icon-icon-0" data-fill-palette-color="accent" id="icon-0"><path d="M37.603 61.628V30.053H26v31.57c-4.071 2.113-6.891 6.323-6.891 11.226 0 7.01 5.684 12.693 12.694 12.693 7.01 0 12.693-5.684 12.693-12.693C44.496 67.946 41.677 63.733 37.603 61.628zM46.307 20.255c0-7.999-6.511-14.507-14.51-14.507s-14.501 6.511-14.501 14.507V57.18c-4.343 3.984-6.894 9.616-6.894 15.669 0 11.795 9.605 21.403 21.401 21.403 11.795 0 21.394-9.608 21.394-21.403 0-6.053-2.546-11.69-6.89-15.675V20.255zM47.395 72.854c0 8.596-6.993 15.589-15.595 15.589-8.594 0-15.589-6.993-15.589-15.589 0-5.208 2.601-9.991 6.894-12.878V20.261c0-4.797 3.896-8.704 8.696-8.704s8.704 3.904 8.704 8.704v39.716C44.793 62.863 47.395 67.646 47.395 72.854zM89.084 52.477L75.33 28.642c-1.207-2.091-3.173-2.091-4.38 0L57.188 52.477c-1.201 2.082-0.216 3.785 2.188 3.785h1.113c2.408 0 4.372 1.964 4.372 4.372v7.919c0 2.406 1.969 4.372 4.372 4.372h7.809c2.408 0 4.375-1.966 4.375-4.372v-7.919c0-2.408 1.96-4.372 4.369-4.372h1.116C89.305 56.262 90.285 54.559 89.084 52.477z" fill="#ffffff" data-fill-palette-color="accent"></path></svg></g></svg></g><g><rect width="99.68729002007373" height="2.118942967219493" y="29.353286677450566" x="221.27718997992622" fill="#ffffff" data-fill-palette-color="secondary"></rect><rect width="99.68729002007373" height="2.118942967219493" y="29.353286677450566" x="76.53312" fill="#ffffff" data-fill-palette-color="secondary"></rect></g></svg></g></svg><rect width="395.52" height="68.83747569352347" fill="none" stroke="none" visibility="hidden"></rect></g><defs></defs></svg>